<svg width="80" height="80" viewBox="0 0 80 80" fill="none" xmlns="http://www.w3.org/2000/svg">
<path d="M31.8472 8.01953H3.08644C1.65799 8.01953 0.5 9.17752 0.5 10.606V39.3668C0.5 40.7952 1.65799 41.9532 3.08644 41.9532H31.8472C33.2757 41.9532 34.4337 40.7952 34.4337 39.3668V10.606C34.4337 9.17752 33.2757 8.01953 31.8472 8.01953Z" fill="#072972"/>
<path d="M27.4483 18.5638V14.0303H7.47852V35.9375H27.4483V31.404H12.0169V27.2531H25.8257V22.7195H12.0169V18.5638H27.4483Z" fill="white"/>
<path d="M31.8472 46.0664H3.08644C1.65799 46.0664 0.5 47.2244 0.5 48.6528V77.4136C0.5 78.8421 1.65799 80.0001 3.08644 80.0001H31.8472C33.2757 80.0001 34.4337 78.8421 34.4337 77.4136V48.6528C34.4337 47.2244 33.2757 46.0664 31.8472 46.0664Z" fill="#144AA5"/>
<path d="M17.863 52.082H7.47852V73.9892H17.863C23.9126 73.9892 28.8142 69.0876 28.8142 63.0381C28.8142 56.9885 23.9126 52.0869 17.863 52.0869V52.082ZM17.863 69.4509H12.012V56.6156H17.863C21.4085 56.6156 24.2807 59.4878 24.2807 63.0332C24.2807 66.5787 21.4085 69.4509 17.863 69.4509Z" fill="white"/>
<path d="M69.8939 46.0664H41.1331C39.7046 46.0664 38.5466 47.2244 38.5466 48.6528V77.4136C38.5466 78.8421 39.7046 80.0001 41.1331 80.0001H69.8939C71.3223 80.0001 72.4803 78.8421 72.4803 77.4136V48.6528C72.4803 47.2244 71.3223 46.0664 69.8939 46.0664Z" fill="#3F7ADC"/>
<path d="M65.496 56.6156V52.082H45.531V73.9844H65.496V69.4509H50.0645V65.3H63.8734V60.7665H50.0645V56.6156H65.496Z" fill="white"/>
<path d="M76.9604 7.57827L49.0527 0.625277C47.6666 0.279946 46.263 1.12364 45.9177 2.50972L38.9647 30.4174C38.6194 31.8035 39.4631 33.2071 40.8491 33.5524L68.7568 40.5054C70.1429 40.8507 71.5465 40.007 71.8918 38.6209L78.8448 10.7133C79.1901 9.32719 78.3464 7.9236 76.9604 7.57827Z" fill="#629FF9"/>
</svg>
